<?xml version="1.0" standalone="no"?>
<!DOCTYPE svg PUBLIC "-//W3C//DTD SVG 20010904//EN"
 "http://www.w3.org/TR/2001/REC-SVG-20010904/DTD/svg10.dtd">
<svg version="1.0" xmlns="http://www.w3.org/2000/svg"
 width="200.000000pt" height="186.000000pt" viewBox="0 0 200.000000 186.000000"
 preserveAspectRatio="xMidYMid meet">

<g transform="translate(0.000000,186.000000) scale(0.100000,-0.100000)"
fill="#000000" stroke="none">
<path d="M173 1073 c-10 -3 -13 -39 -13 -128 l0 -124 43 -6 c66 -10 132 -3
132 15 0 12 -15 16 -67 18 l-68 3 0 39 0 40 60 0 c47 0 60 3 60 15 0 12 -13
15 -60 15 l-60 0 0 40 0 40 65 0 c58 0 65 2 65 20 0 18 -6 20 -72 19 -40 0
-79 -3 -85 -6z"/>
<path d="M456 1072 c-9 -15 -96 -244 -96 -253 0 -22 33 -6 43 21 11 29 14 30
73 30 59 0 62 -1 74 -30 13 -31 40 -41 40 -16 0 8 -21 69 -46 135 -36 93 -51
121 -65 121 -10 0 -20 -4 -23 -8z m63 -149 c1 -9 -14 -13 -44 -13 l-44 0 22
61 22 61 22 -48 c12 -27 22 -55 22 -61z"/>
<path d="M585 1070 c-11 -18 5 -30 40 -30 l34 0 3 -112 c3 -98 5 -113 21 -116
15 -3 17 7 17 112 l0 116 41 0 c33 0 40 3 37 18 -3 14 -17 17 -95 20 -55 2
-94 -1 -98 -8z"/>
<path d="M958 1075 c-7 -7 42 -248 52 -259 16 -16 35 11 49 66 22 88 27 89 51
10 36 -118 49 -112 81 38 27 130 28 145 9 145 -14 0 -18 -11 -40 -128 -7 -32
-15 -56 -18 -52 -4 4 -14 32 -22 63 -22 81 -44 82 -66 3 -10 -34 -20 -61 -24
-61 -4 0 -10 18 -14 40 -19 123 -35 158 -58 135z"/>
<path d="M1269 1068 c-2 -7 -3 -66 -1 -130 l3 -118 85 0 c64 0 85 3 82 13 -3
7 -29 13 -71 15 l-67 3 0 39 0 40 60 0 c47 0 60 3 60 15 0 12 -13 15 -60 15
l-60 0 0 40 0 40 66 0 c57 0 65 2 62 18 -3 14 -16 17 -79 20 -56 2 -78 -1 -80
-10z"/>
<path d="M1706 1073 c-3 -3 -6 -62 -6 -129 l0 -123 28 -3 c58 -7 132 3 132 18
0 11 -16 14 -65 14 l-65 0 0 109 c0 100 -6 131 -24 114z"/>
<path d="M1490 947 c0 -68 2 -126 4 -128 2 -2 41 -3 86 -1 99 4 106 25 9 32
l-64 5 -3 108 c-2 86 -6 107 -17 107 -12 0 -15 -22 -15 -123z"/>
<path d="M790 925 c0 -12 14 -15 65 -15 51 0 65 3 65 15 0 12 -14 15 -65 15
-51 0 -65 -3 -65 -15z"/>
</g>
</svg>
